<svg viewBox="0 0 49.65471057868393 50" xmlns="http://www.w3.org/2000/svg" version="1.1" width="298" height="300">
  <g transform="translate(-2.8336456954385905 -2.660922901288791) scale(0.5532194287935113)">
    <g fill="#4f726c">
      <path d="M94.871 50.76c-.007-.02-.021-.035-.021-.049-.021-.021-.029-.042-.05-.063l-.042-.043-.014-.014-25.265-12.947 4.377-28.178c.007-.021-.007-.036-.014-.057 0-.028 0-.056-.022-.092a.249.249 0 0 0-.056-.07c-.014-.015-.021-.036-.043-.043l-8.824-4.37c-.022-.007-.029 0-.043 0-.014-.014-.021-.021-.035-.021-.007-.007-.014 0-.014 0-.029 0-.036.007-.064.007-.021.007-.042.014-.07.028-.022.007-.029.014-.05.022l-.014.014L44.702 24.93 19.946 12.238c-.014-.015-.028 0-.05-.007a.427.427 0 0 0-.092-.008c-.035.007-.063.022-.091.036-.015.014-.036.007-.05.021l-7.113 7.17c-.008.007-.008.021-.015.028-.007.022-.02.022-.028.029s0 .014-.007.02c-.007.022-.007.036-.007.064-.007.022 0 .043 0 .071.007.021.007.036.014.057 0 0-.007.007 0 .014L25.15 44.637 5.182 64.761c-.015.015-.015.043-.022.05a.246.246 0 0 0-.035.092c-.007.035 0 .056.007.092 0 .014-.007.035 0 .056l4.32 8.917c0 .014.022.021.029.028.014.014.014.029.02.036l.015.014c.021.007.028.014.05.021.028.014.05.021.07.028.029 0 .036.007.064.007 0 0 .007.007.014 0l28.037-4.617 12.982 25.569c.007.021.029.028.043.042.02.022.042.043.07.057.029.014.057.014.092.021.022.007.036.021.057.014l9.61-1.59c.014 0 .028-.015.049-.022.007-.007.014 0 .028 0 .029-.014.043-.028.064-.05a.24.24 0 0 0 .064-.134l4.426-28.454 27.818-4.596a.246.246 0 0 0 .141-.07.239.239 0 0 0 .064-.135l1.612-9.277c.014-.014 0-.029 0-.043 0-.014.007-.02.007-.035s-.014-.014-.007-.021zM64.416 5.783l-6.682 43.013-6.987 1.103 3.126-20.068c0-.028-.014-.042-.014-.056-.007-.036-.007-.064-.021-.092-.015-.028-.036-.05-.057-.07-.014-.015-.021-.036-.042-.043l-8.57-4.398L64.415 5.78zM13.299 20.185L51.844 39.61l-1.075 6.915-2.383-1.195-.007-.007-15.769-7.948c-.021-.007-.042 0-.063-.007-.036-.007-.057-.014-.092-.007a.14.14 0 0 0-.085.043c-.014 0-.043 0-.057.014l-6.795 6.852-12.219-24.085zm37.385 26.863l-.453 2.928-2.708.431-1.244-2.46 2.064-2.08 2.34 1.181zM33.247 60.554c.007.021-.007.036 0 .057l4.27 8.4L10.4 73.487l30.922-31.162 6.555 3.302-14.58 14.694c-.015.014-.015.042-.03.056-.013.029-.02.05-.027.085s0 .057.007.092zm27.195 31.99L40.777 53.49l5.127-5.169 9.129 18.123c.014.014.035.022.049.036.021.02.042.042.07.056a.15.15 0 0 0 .086.029c.028 0 .042.014.063.007l9.419-1.556-4.278 27.528zm-9.376-35.087l-3.31-6.576 19.99-3.16c.05-.008.092-.036.128-.072s.07-.084.077-.134l1.45-9.355 24.438 12.53-42.773 6.767z"/>
    </g>
  </g>
</svg>
