<svg xmlns="http://www.w3.org/2000/svg" viewBox="0 0 94.881939 17.881084" version="1.1" width="569.42871" height="107.28651">
  <g transform="translate(37.004959,-68.951819)">
    <g transform="matrix(0.19784334,0,0,0.19784334,-38.024311,68.000215)">
      <path fill="#4f726c" d="M 94.871,50.76 C 94.864,50.74 94.85,50.725 94.85,50.711 94.829,50.69 94.821,50.669 94.8,50.648 L 94.758,50.605 94.744,50.591 69.479,37.644 73.856,9.466 C 73.863,9.445 73.849,9.43 73.842,9.409 c 0,-0.028 0,-0.056 -0.022,-0.092 A 0.249,0.249 0 0 0 73.764,9.247 C 73.75,9.232 73.743,9.211 73.721,9.204 l -8.824,-4.37 c -0.022,-0.007 -0.029,0 -0.043,0 C 64.84,4.82 64.833,4.813 64.819,4.813 c -0.007,-0.007 -0.014,0 -0.014,0 -0.029,0 -0.036,0.007 -0.064,0.007 -0.021,0.007 -0.042,0.014 -0.07,0.028 -0.022,0.007 -0.029,0.014 -0.05,0.022 L 64.607,4.884 44.702,24.93 19.946,12.238 c -0.014,-0.015 -0.028,0 -0.05,-0.007 a 0.427,0.427 0 0 0 -0.092,-0.008 c -0.035,0.007 -0.063,0.022 -0.091,0.036 -0.015,0.014 -0.036,0.007 -0.05,0.021 l -7.113,7.17 c -0.008,0.007 -0.008,0.021 -0.015,0.028 -0.007,0.022 -0.02,0.022 -0.028,0.029 -0.008,0.007 0,0.014 -0.007,0.02 -0.007,0.022 -0.007,0.036 -0.007,0.064 -0.007,0.022 0,0.043 0,0.071 0.007,0.021 0.007,0.036 0.014,0.057 0,0 -0.007,0.007 0,0.014 L 25.15,44.637 5.182,64.761 c -0.015,0.015 -0.015,0.043 -0.022,0.05 a 0.246,0.246 0 0 0 -0.035,0.092 c -0.007,0.035 0,0.056 0.007,0.092 0,0.014 -0.007,0.035 0,0.056 l 4.32,8.917 c 0,0.014 0.022,0.021 0.029,0.028 0.014,0.014 0.014,0.029 0.02,0.036 l 0.015,0.014 c 0.021,0.007 0.028,0.014 0.05,0.021 0.028,0.014 0.05,0.021 0.07,0.028 0.029,0 0.036,0.007 0.064,0.007 0,0 0.007,0.007 0.014,0 l 28.037,-4.617 12.982,25.569 c 0.007,0.021 0.029,0.028 0.043,0.042 0.02,0.022 0.042,0.043 0.07,0.057 0.029,0.014 0.057,0.014 0.092,0.021 0.022,0.007 0.036,0.021 0.057,0.014 l 9.61,-1.59 c 0.014,0 0.028,-0.015 0.049,-0.022 0.007,-0.007 0.014,0 0.028,0 0.029,-0.014 0.043,-0.028 0.064,-0.05 a 0.24,0.24 0 0 0 0.064,-0.134 l 4.426,-28.454 27.818,-4.596 a 0.246,0.246 0 0 0 0.141,-0.07 0.239,0.239 0 0 0 0.064,-0.135 l 1.612,-9.277 c 0.014,-0.014 0,-0.029 0,-0.043 0,-0.014 0.007,-0.02 0.007,-0.035 0,-0.015 -0.014,-0.014 -0.007,-0.021 z M 64.416,5.783 57.734,48.796 50.747,49.899 53.873,29.831 c 0,-0.028 -0.014,-0.042 -0.014,-0.056 -0.007,-0.036 -0.007,-0.064 -0.021,-0.092 -0.015,-0.028 -0.036,-0.05 -0.057,-0.07 C 53.767,29.598 53.76,29.577 53.739,29.57 L 45.169,25.172 64.415,5.78 Z M 13.299,20.185 51.844,39.61 50.769,46.525 48.386,45.33 48.379,45.323 32.61,37.375 c -0.021,-0.007 -0.042,0 -0.063,-0.007 -0.036,-0.007 -0.057,-0.014 -0.092,-0.007 a 0.14,0.14 0 0 0 -0.085,0.043 c -0.014,0 -0.043,0 -0.057,0.014 l -6.795,6.852 z m 37.385,26.863 -0.453,2.928 -2.708,0.431 -1.244,-2.46 2.064,-2.08 2.34,1.181 z M 33.247,60.554 c 0.007,0.021 -0.007,0.036 0,0.057 l 4.27,8.4 -27.117,4.476 30.922,-31.162 6.555,3.302 -14.58,14.694 c -0.015,0.014 -0.015,0.042 -0.03,0.056 -0.013,0.029 -0.02,0.05 -0.027,0.085 -0.007,0.035 0,0.057 0.007,0.092 z m 27.195,31.99 -19.665,-39.054 5.127,-5.169 9.129,18.123 c 0.014,0.014 0.035,0.022 0.049,0.036 0.021,0.02 0.042,0.042 0.07,0.056 a 0.15,0.15 0 0 0 0.086,0.029 c 0.028,0 0.042,0.014 0.063,0.007 l 9.419,-1.556 z m -9.376,-35.087 -3.31,-6.576 19.99,-3.16 c 0.05,-0.008 0.092,-0.036 0.128,-0.072 0.036,-0.036 0.07,-0.084 0.077,-0.134 l 1.45,-9.355 24.438,12.53 z"/>
    </g>
    <g transform="matrix(1.0397689,0,0,1.0397689,41.043245,23.46587)">
      <g fill="#4f726c" transform="matrix(0.62992125,0,0,0.62992125,-49.958848,24.378846)">
        <path d="m -1.5315992,44.618198 c 0,-1.825625 0,-3.46075 0.047625,-5.064125 h 0.904875 c 1.603375,0 2.44475,0.85725 2.44475,2.428875 0,1.444625 -0.682625,2.63525 -2.460625,2.63525 z m 5.969,5.572125 -0.523875,-2.619375 c -0.269875,-1.571625 -0.809625,-2.44475 -2.88925,-2.7305 2.492375,-0.381 3.381375,-1.603375 3.381375,-2.905125 0,-1.889125 -1.524,-2.9845 -4.318,-2.9845 h -5.715 v 0.53975 l 1.42875,0.127 c 0.047625,1.635125 0.047625,3.27025 0.047625,4.92125 v 0.6985 c 0,1.651 0,3.286125 -0.047625,4.8895 l -1.42875,0.142875 v 0.53975 h 5.603875 v -0.53975 l -1.4605,-0.142875 c -0.047625,-1.61925 -0.047625,-3.254375 -0.047625,-4.92125 h 0.777875 c 1.222375,0 1.603375,0.635 1.825625,1.93675 l 0.460375,2.19075 c 0.15875,1.285875 0.968375,1.7145 2.428875,1.7145 0.79375,0 1.23825,-0.07937 1.889125,-0.238125 v -0.53975 z"/>
        <path d="m 8.3849444,45.872323 c 0.0635,-2.460625 0.777875,-3.444875 1.6509996,-3.444875 0.841375,0 1.444625,0.73025 1.444625,2.111375 0,0.98425 -0.1905,1.349375 -0.936625,1.349375 z m 5.0799996,2.873375 c -0.523875,0.73025 -1.2065,1.2065 -2.31775,1.2065 -1.4922496,0 -2.6828746,-1.016 -2.7622496,-3.4925 h 5.3974996 c 0.07938,-0.301625 0.09525,-0.5715 0.09525,-0.968375 0,-2.016125 -1.285875,-3.6195 -3.667125,-3.6195 -2.2701246,0 -4.5402496,1.5875 -4.5402496,4.572 0,2.968625 1.93675,4.6355 4.5561246,4.6355 1.61925,0 2.88925,-0.777875 3.540125,-2.143125 z"/>
        <path d="m 19.444505,49.269573 c -0.587375,0.523875 -0.9525,0.73025 -1.381125,0.73025 -0.746125,0 -1.190625,-0.4445 -1.190625,-1.397 0,-1.158875 0.587375,-1.905 1.698625,-2.365375 0.1905,-0.07937 0.508,-0.174625 0.873125,-0.269875 z m -3.39725,-6.461125 0.254,-0.09525 z m 7.08025,6.810375 c -0.301625,0.47625 -0.47625,0.60325 -0.714375,0.60325 -0.301625,0 -0.492125,-0.206375 -0.492125,-0.809625 v -4.270375 c 0,-2.301875 -0.904875,-3.27025 -3.159125,-3.27025 -2.460625,0 -3.84175,0.9525 -3.96875,2.44475 0.127,0.523875 0.523875,0.809625 1.095375,0.809625 0.60325,0 1.143,-0.428625 1.190625,-1.508125 l 0.111125,-1.127125 c 0.238125,-0.04763 0.4445,-0.0635 0.66675,-0.0635 1.2065,0 1.5875,0.492125 1.5875,2.143125 v 0.968375 c -0.555625,0.142875 -1.11125,0.28575 -1.55575,0.41275 -2.555875,0.746125 -3.381375,1.524 -3.381375,2.968625 0,1.3335 0.9525,2.159 2.31775,2.159 1.27,0 1.87325,-0.492125 2.682875,-1.381125 0.238125,0.85725 0.8255,1.381125 1.87325,1.381125 1.016,0 1.61925,-0.365125 2.016125,-1.23825 z"/>
        <path d="m 29.170572,43.681573 c 0.0635,1.17475 0.619125,1.55575 1.285875,1.55575 0.53975,0 0.889,-0.269875 1.04775,-0.841375 -0.206375,-1.42875 -1.476375,-2.524125 -3.27025,-2.524125 -2.651125,0 -4.810125,1.666875 -4.810125,4.619625 0,2.95275 2.016125,4.587875 4.429125,4.587875 1.730375,0 2.88925,-0.73025 3.6195,-2.047875 l -0.3175,-0.206375 c -0.5715,0.714375 -1.254125,1.127125 -2.174875,1.127125 -1.698625,0 -2.8575,-1.349375 -2.8575,-3.71475 0,-2.428875 1.031875,-3.81 2.44475,-3.81 0.142875,0 0.28575,0.01588 0.4445,0.03175 z"/>
        <path d="m 37.610726,49.507698 c -0.41275,0.34925 -0.682625,0.508 -1.0795,0.508 -0.635,0 -1.04775,-0.365125 -1.04775,-1.222375 v -6.00075 h 1.9685 v -0.650875 h -1.9685 l 0.03175,-2.555875 h -1.635125 l -0.8255,2.54 -1.412875,0.15875 v 0.508 h 1.285875 v 4.064 c 0,0.66675 -0.01588,1.127125 -0.01588,1.730375 -0.01588,1.762125 0.85725,2.492375 2.4765,2.492375 1.222375,0 2.016125,-0.460375 2.492375,-1.317625 z"/>
        <path d="m 40.193049,40.300198 c 0.762,0 1.381125,-0.53975 1.381125,-1.285875 0,-0.762 -0.619125,-1.30175 -1.381125,-1.30175 -0.746125,0 -1.36525,0.53975 -1.36525,1.30175 0,0.746125 0.619125,1.285875 1.36525,1.285875 z m 1.36525,9.921875 c -0.01588,-0.92075 -0.03175,-2.301875 -0.03175,-3.190875 v -2.44475 l 0.0635,-2.54 -0.22225,-0.15875 -3.635375,0.9525 v 0.381 l 1.190625,0.127 c 0.03175,0.809625 0.04763,1.397 0.04763,2.413 v 1.27 c 0,0.889 -0.01588,2.25425 -0.03175,3.190875 l -1.04775,0.09525 v 0.492125 h 4.6355 v -0.492125 z"/>
        <path d="m 51.665351,42.141698 h -3.095625 v 0.47625 l 1.23825,0.15875 -1.905,5.6515 -1.984375,-5.68325 1.143,-0.127 v -0.47625 h -4.873625 v 0.47625 l 0.98425,0.127 3.190875,8.09625 h 1.095375 l 3.07975,-8.048625 1.127125,-0.174625 z"/>
        <path d="m 54.057131,45.872323 c 0.0635,-2.460625 0.777875,-3.444875 1.651,-3.444875 0.841375,0 1.444625,0.73025 1.444625,2.111375 0,0.98425 -0.1905,1.349375 -0.936625,1.349375 z m 5.08,2.873375 c -0.523875,0.73025 -1.2065,1.2065 -2.31775,1.2065 -1.49225,0 -2.682875,-1.016 -2.76225,-3.4925 h 5.3975 c 0.07937,-0.301625 0.09525,-0.5715 0.09525,-0.968375 0,-2.016125 -1.285875,-3.6195 -3.667125,-3.6195 -2.270125,0 -4.54025,1.5875 -4.54025,4.572 0,2.968625 1.93675,4.6355 4.556125,4.6355 1.61925,0 2.88925,-0.777875 3.540125,-2.143125 z"/>
        <path d="m 72.810772,38.950823 h -9.2075 v 0.53975 l 1.42875,0.127 c 0.04762,1.635125 0.04762,3.27025 0.04762,4.92125 v 0.6985 c 0,1.651 0,3.286125 -0.04762,4.8895 l -1.42875,0.142875 v 0.53975 h 5.889625 v -0.53975 l -1.698625,-0.174625 c -0.03175,-1.61925 -0.03175,-3.27025 -0.03175,-5.000625 v -0.04762 h 2.19075 l 0.22225,1.762125 h 0.79375 v -4.09575 h -0.79375 l -0.238125,1.762125 h -2.174875 c 0,-1.68275 0,-3.317875 0.03175,-4.905375 h 3.349625 l 0.73025,2.54 h 0.904875 z"/>
        <path d="m 76.91709,51.079323 c 2.69875,0 4.5085,-1.80975 4.5085,-4.651375 0,-2.841625 -2.00025,-4.556125 -4.5085,-4.556125 -2.492375,0 -4.492625,1.74625 -4.492625,4.556125 0,2.794 1.778,4.651375 4.492625,4.651375 z m 0,-0.555625 c -1.143,0 -1.778,-1.30175 -1.778,-4.064 0,-2.778125 0.635,-4.03225 1.778,-4.03225 1.143,0 1.762125,1.254125 1.762125,4.03225 0,2.76225 -0.619125,4.064 -1.762125,4.064 z"/>
        <path d="m 85.500164,42.046448 -0.22225,-0.15875 -3.444875,1.000125 v 0.381 l 1.190625,0.127 c 0.03175,0.762 0.04762,1.285875 0.04762,2.31775 v 1.317625 c 0,0.889 -0.01587,2.25425 -0.03175,3.175 l -1.0795,0.111125 v 0.492125 h 5.159375 v -0.492125 l -1.4605,-0.142875 c -0.01587,-0.936625 -0.03175,-2.270125 -0.03175,-3.14325 v -1.317625 c 0.301625,-1.17475 0.682625,-1.857375 1.317625,-2.44475 l 0.142875,0.1905 c 0.428625,0.5715 0.809625,0.9525 1.412875,0.9525 0.79375,0 1.11125,-0.587375 1.17475,-1.285875 -0.15875,-0.9525 -0.79375,-1.254125 -1.539875,-1.254125 -0.9525,0 -2.032,0.8255 -2.50825,2.44475 z"/>
        <path d="m 104.08447,50.222073 c -0.0159,-0.904875 -0.0318,-2.25425 -0.0318,-3.190875 v -2.00025 c 0,-2.159 -0.80962,-3.159125 -2.58762,-3.159125 -1.03188,0 -1.889129,0.396875 -2.936879,1.651 -0.333375,-1.11125 -1.143,-1.651 -2.333625,-1.651 -1.0795,0 -1.93675,0.492125 -2.8575,1.5875 l -0.111125,-1.412875 -0.22225,-0.15875 -3.444875,1.000125 v 0.365125 l 1.190625,0.127 c 0.03175,0.777875 0.04762,1.285875 0.04762,2.333625 v 1.317625 c 0,0.889 -0.01587,2.25425 -0.03175,3.190875 l -1.063625,0.09525 v 0.492125 h 4.587875 v -0.492125 l -0.904875,-0.07937 c -0.01587,-0.936625 -0.03175,-2.31775 -0.03175,-3.20675 v -3.032125 c 0.5715,-0.555625 1.17475,-0.92075 1.74625,-0.92075 0.762,0 1.095375,0.508 1.095375,1.80975 v 2.143125 c 0,0.92075 -0.01588,2.270125 -0.03175,3.190875 l -1.016,0.09525 v 0.492125 h 4.492625 v -0.492125 l -0.889,-0.07937 c -0.03175,-0.92075 -0.04763,-2.270125 -0.04763,-3.20675 v -2.0955 c 0,-0.333375 -0.01587,-0.635 -0.0635,-0.92075 0.60325,-0.60325 1.190625,-0.936625 1.778004,-0.936625 0.762,0 1.11125,0.41275 1.11125,1.80975 v 2.143125 c 0,0.92075 -0.0159,2.270125 -0.0318,3.190875 l -0.9525,0.09525 v 0.492125 h 4.49262 v -0.492125 z"/>
      </g>
    </g>
  </g>
</svg>
