<?xml version="1.0" encoding="UTF-8" standalone="no"?>
<svg xmlns="http://www.w3.org/2000/svg" version="1.1" width="860" height="144" viewBox="0 0 227.54166 38.100002">
  <g style="fill:#4f726c" transform="translate(6.6856825,-36.1621147)">
    <path d="m -1.5315992,44.618198 c 0,-1.825625 0,-3.46075 0.047625,-5.064125 h 0.904875 c 1.603375,0 2.44475,0.85725 2.44475,2.428875 0,1.444625 -0.682625,2.63525 -2.460625,2.63525 z m 5.969,5.572125 -0.523875,-2.619375 c -0.269875,-1.571625 -0.809625,-2.44475 -2.88925,-2.7305 2.492375,-0.381 3.381375,-1.603375 3.381375,-2.905125 0,-1.889125 -1.524,-2.9845 -4.318,-2.9845 h -5.715 v 0.53975 l 1.42875,0.127 c 0.047625,1.635125 0.047625,3.27025 0.047625,4.92125 v 0.6985 c 0,1.651 0,3.286125 -0.047625,4.8895 l -1.42875,0.142875 v 0.53975 h 5.603875 v -0.53975 l -1.4605,-0.142875 c -0.047625,-1.61925 -0.047625,-3.254375 -0.047625,-4.92125 h 0.777875 c 1.222375,0 1.603375,0.635 1.825625,1.93675 l 0.460375,2.19075 c 0.15875,1.285875 0.968375,1.7145 2.428875,1.7145 0.79375,0 1.23825,-0.07937 1.889125,-0.238125 v -0.53975 z"/>
    <path d="m 8.3849444,45.872323 c 0.0635,-2.460625 0.777875,-3.444875 1.6509996,-3.444875 0.841375,0 1.444625,0.73025 1.444625,2.111375 0,0.98425 -0.1905,1.349375 -0.936625,1.349375 z m 5.0799996,2.873375 c -0.523875,0.73025 -1.2065,1.2065 -2.31775,1.2065 -1.4922496,0 -2.6828746,-1.016 -2.7622496,-3.4925 h 5.3974996 c 0.07938,-0.301625 0.09525,-0.5715 0.09525,-0.968375 0,-2.016125 -1.285875,-3.6195 -3.667125,-3.6195 -2.2701246,0 -4.5402496,1.5875 -4.5402496,4.572 0,2.968625 1.93675,4.6355 4.5561246,4.6355 1.61925,0 2.88925,-0.777875 3.540125,-2.143125 z"/>
    <path d="m 19.444505,49.269573 c -0.587375,0.523875 -0.9525,0.73025 -1.381125,0.73025 -0.746125,0 -1.190625,-0.4445 -1.190625,-1.397 0,-1.158875 0.587375,-1.905 1.698625,-2.365375 0.1905,-0.07937 0.508,-0.174625 0.873125,-0.269875 z m -3.39725,-6.461125 0.254,-0.09525 z m 7.08025,6.810375 c -0.301625,0.47625 -0.47625,0.60325 -0.714375,0.60325 -0.301625,0 -0.492125,-0.206375 -0.492125,-0.809625 v -4.270375 c 0,-2.301875 -0.904875,-3.27025 -3.159125,-3.27025 -2.460625,0 -3.84175,0.9525 -3.96875,2.44475 0.127,0.523875 0.523875,0.809625 1.095375,0.809625 0.60325,0 1.143,-0.428625 1.190625,-1.508125 l 0.111125,-1.127125 c 0.238125,-0.04763 0.4445,-0.0635 0.66675,-0.0635 1.2065,0 1.5875,0.492125 1.5875,2.143125 v 0.968375 c -0.555625,0.142875 -1.11125,0.28575 -1.55575,0.41275 -2.555875,0.746125 -3.381375,1.524 -3.381375,2.968625 0,1.3335 0.9525,2.159 2.31775,2.159 1.27,0 1.87325,-0.492125 2.682875,-1.381125 0.238125,0.85725 0.8255,1.381125 1.87325,1.381125 1.016,0 1.61925,-0.365125 2.016125,-1.23825 z"/>
    <path d="m 29.170572,43.681573 c 0.0635,1.17475 0.619125,1.55575 1.285875,1.55575 0.53975,0 0.889,-0.269875 1.04775,-0.841375 -0.206375,-1.42875 -1.476375,-2.524125 -3.27025,-2.524125 -2.651125,0 -4.810125,1.666875 -4.810125,4.619625 0,2.95275 2.016125,4.587875 4.429125,4.587875 1.730375,0 2.88925,-0.73025 3.6195,-2.047875 l -0.3175,-0.206375 c -0.5715,0.714375 -1.254125,1.127125 -2.174875,1.127125 -1.698625,0 -2.8575,-1.349375 -2.8575,-3.71475 0,-2.428875 1.031875,-3.81 2.44475,-3.81 0.142875,0 0.28575,0.01588 0.4445,0.03175 z"/>
    <path d="m 37.610726,49.507698 c -0.41275,0.34925 -0.682625,0.508 -1.0795,0.508 -0.635,0 -1.04775,-0.365125 -1.04775,-1.222375 v -6.00075 h 1.9685 v -0.650875 h -1.9685 l 0.03175,-2.555875 h -1.635125 l -0.8255,2.54 -1.412875,0.15875 v 0.508 h 1.285875 v 4.064 c 0,0.66675 -0.01588,1.127125 -0.01588,1.730375 -0.01588,1.762125 0.85725,2.492375 2.4765,2.492375 1.222375,0 2.016125,-0.460375 2.492375,-1.317625 z"/>
    <path d="m 40.193049,40.300198 c 0.762,0 1.381125,-0.53975 1.381125,-1.285875 0,-0.762 -0.619125,-1.30175 -1.381125,-1.30175 -0.746125,0 -1.36525,0.53975 -1.36525,1.30175 0,0.746125 0.619125,1.285875 1.36525,1.285875 z m 1.36525,9.921875 c -0.01588,-0.92075 -0.03175,-2.301875 -0.03175,-3.190875 v -2.44475 l 0.0635,-2.54 -0.22225,-0.15875 -3.635375,0.9525 v 0.381 l 1.190625,0.127 c 0.03175,0.809625 0.04763,1.397 0.04763,2.413 v 1.27 c 0,0.889 -0.01588,2.25425 -0.03175,3.190875 l -1.04775,0.09525 v 0.492125 h 4.6355 v -0.492125 z"/>
    <path d="m 51.665351,42.141698 h -3.095625 v 0.47625 l 1.23825,0.15875 -1.905,5.6515 -1.984375,-5.68325 1.143,-0.127 v -0.47625 h -4.873625 v 0.47625 l 0.98425,0.127 3.190875,8.09625 h 1.095375 l 3.07975,-8.048625 1.127125,-0.174625 z"/>
    <path d="m 54.057131,45.872323 c 0.0635,-2.460625 0.777875,-3.444875 1.651,-3.444875 0.841375,0 1.444625,0.73025 1.444625,2.111375 0,0.98425 -0.1905,1.349375 -0.936625,1.349375 z m 5.08,2.873375 c -0.523875,0.73025 -1.2065,1.2065 -2.31775,1.2065 -1.49225,0 -2.682875,-1.016 -2.76225,-3.4925 h 5.3975 c 0.07937,-0.301625 0.09525,-0.5715 0.09525,-0.968375 0,-2.016125 -1.285875,-3.6195 -3.667125,-3.6195 -2.270125,0 -4.54025,1.5875 -4.54025,4.572 0,2.968625 1.93675,4.6355 4.556125,4.6355 1.61925,0 2.88925,-0.777875 3.540125,-2.143125 z"/>
    <path d="m 72.810772,38.950823 h -9.2075 v 0.53975 l 1.42875,0.127 c 0.04762,1.635125 0.04762,3.27025 0.04762,4.92125 v 0.6985 c 0,1.651 0,3.286125 -0.04762,4.8895 l -1.42875,0.142875 v 0.53975 h 5.889625 v -0.53975 l -1.698625,-0.174625 c -0.03175,-1.61925 -0.03175,-3.27025 -0.03175,-5.000625 v -0.04762 h 2.19075 l 0.22225,1.762125 h 0.79375 v -4.09575 h -0.79375 l -0.238125,1.762125 h -2.174875 c 0,-1.68275 0,-3.317875 0.03175,-4.905375 h 3.349625 l 0.73025,2.54 h 0.904875 z"/>
    <path d="m 76.91709,51.079323 c 2.69875,0 4.5085,-1.80975 4.5085,-4.651375 0,-2.841625 -2.00025,-4.556125 -4.5085,-4.556125 -2.492375,0 -4.492625,1.74625 -4.492625,4.556125 0,2.794 1.778,4.651375 4.492625,4.651375 z m 0,-0.555625 c -1.143,0 -1.778,-1.30175 -1.778,-4.064 0,-2.778125 0.635,-4.03225 1.778,-4.03225 1.143,0 1.762125,1.254125 1.762125,4.03225 0,2.76225 -0.619125,4.064 -1.762125,4.064 z"/>
    <path d="m 85.500164,42.046448 -0.22225,-0.15875 -3.444875,1.000125 v 0.381 l 1.190625,0.127 c 0.03175,0.762 0.04762,1.285875 0.04762,2.31775 v 1.317625 c 0,0.889 -0.01587,2.25425 -0.03175,3.175 l -1.0795,0.111125 v 0.492125 h 5.159375 v -0.492125 l -1.4605,-0.142875 c -0.01587,-0.936625 -0.03175,-2.270125 -0.03175,-3.14325 v -1.317625 c 0.301625,-1.17475 0.682625,-1.857375 1.317625,-2.44475 l 0.142875,0.1905 c 0.428625,0.5715 0.809625,0.9525 1.412875,0.9525 0.79375,0 1.11125,-0.587375 1.17475,-1.285875 -0.15875,-0.9525 -0.79375,-1.254125 -1.539875,-1.254125 -0.9525,0 -2.032,0.8255 -2.50825,2.44475 z"/>
    <path d="m 104.08447,50.222073 c -0.0159,-0.904875 -0.0318,-2.25425 -0.0318,-3.190875 v -2.00025 c 0,-2.159 -0.80962,-3.159125 -2.58762,-3.159125 -1.03188,0 -1.889129,0.396875 -2.936879,1.651 -0.333375,-1.11125 -1.143,-1.651 -2.333625,-1.651 -1.0795,0 -1.93675,0.492125 -2.8575,1.5875 l -0.111125,-1.412875 -0.22225,-0.15875 -3.444875,1.000125 v 0.365125 l 1.190625,0.127 c 0.03175,0.777875 0.04762,1.285875 0.04762,2.333625 v 1.317625 c 0,0.889 -0.01587,2.25425 -0.03175,3.190875 l -1.063625,0.09525 v 0.492125 h 4.587875 v -0.492125 l -0.904875,-0.07937 c -0.01587,-0.936625 -0.03175,-2.31775 -0.03175,-3.20675 v -3.032125 c 0.5715,-0.555625 1.17475,-0.92075 1.74625,-0.92075 0.762,0 1.095375,0.508 1.095375,1.80975 v 2.143125 c 0,0.92075 -0.01588,2.270125 -0.03175,3.190875 l -1.016,0.09525 v 0.492125 h 4.492625 v -0.492125 l -0.889,-0.07937 c -0.03175,-0.92075 -0.04763,-2.270125 -0.04763,-3.20675 v -2.0955 c 0,-0.333375 -0.01587,-0.635 -0.0635,-0.92075 0.60325,-0.60325 1.190625,-0.936625 1.778004,-0.936625 0.762,0 1.11125,0.41275 1.11125,1.80975 v 2.143125 c 0,0.92075 -0.0159,2.270125 -0.0318,3.190875 l -0.9525,0.09525 v 0.492125 h 4.49262 v -0.492125 z"/>
    <path d="m 119.3668,38.903198 v 1.651 h -5.11175 v -1.651 z m -5.11175,3.77825 v -1.68275 h 5.11175 v 1.68275 z m 0,0.4445 h 5.11175 v 0.873125 h 0.42862 c 0.77788,0 2.00025,-0.396875 2.01613,-0.508 v -4.206875 c 0.33337,-0.0635 0.52387,-0.22225 0.61912,-0.34925 l -2.17487,-1.635125 -1.04775,1.158875 h -4.826 l -2.55588,-0.968375 v 6.82625 h 0.34925 c 1.00013,0 2.07963,-0.523875 2.07963,-0.746125 z m 3.937,4.6355 h 4.28625 c 0.23812,0 0.42862,-0.07937 0.47625,-0.254 -0.8255,-0.746125 -2.2225,-1.857375 -2.2225,-1.857375 l -1.22238,1.666875 h -1.31762 v -2.174875 h 5.66737 c 0.23813,0 0.41275,-0.07938 0.46038,-0.254 -0.74613,-0.6985 -2.01613,-1.74625 -2.01613,-1.74625 l -1.12712,1.55575 H 109.2703 l 0.127,0.4445 h 6.35 v 4.66725 c -0.77788,-0.238125 -1.36525,-0.635 -1.8415,-1.317625 0.30162,-0.5715 0.508,-1.158875 0.65087,-1.74625 0.41275,0 0.5715,-0.15875 0.61913,-0.396875 l -3.07975,-0.523875 c -0.0953,2.016125 -0.74613,4.556125 -3.048,6.31825 l 0.0952,0.142875 c 2.30187,-0.809625 3.69887,-2.016125 4.52437,-3.3655 0.8255,2.4765 2.36538,3.127375 5.1435,3.127375 h 4.49263 c 0,-0.85725 0.3175,-1.635125 1.016,-1.80975 v -0.174625 c -1.28588,0.03175 -4.27038,0.03175 -5.47688,0.03175 -0.22225,0 -0.4445,0 -0.65087,0 z"/>
    <path d="m 125.17701,44.173698 0.14287,0.508 h 14.44625 c 0.26988,0 0.46038,-0.07937 0.508,-0.254 -0.9525,-0.904875 -2.6035,-2.3495 -2.6035,-2.3495 l -1.47637,2.0955 z"/>
    <path d="m 141.21073,39.712823 h 2.794 v 1.857375 h -2.46063 l 0.127,0.4445 h 6.82625 c 0.22225,0 0.381,-0.07938 0.42863,-0.254 -0.635,-0.5715 -1.66688,-1.381125 -1.66688,-1.381125 l -0.92075,1.190625 h -0.1905 v -1.857375 h 2.74638 c 0.22225,0 0.39687,-0.07937 0.4445,-0.254 -0.68263,-0.60325 -1.80975,-1.49225 -1.80975,-1.49225 l -0.98425,1.30175 h -0.39688 v -1.349375 c 0.4445,-0.07937 0.55563,-0.238125 0.5715,-0.460375 l -2.71462,-0.206375 v 2.016125 h -2.921 z m 0.6985,3.889375 0.127,0.4445 h 5.98487 c 0.22225,0 0.39688,-0.07937 0.42863,-0.254 -0.65088,-0.587375 -1.74625,-1.444625 -1.74625,-1.444625 l -0.96838,1.254125 z m 7.12787,2.651125 c 0.22225,0 0.39688,-0.07937 0.4445,-0.254 -0.71437,-0.619125 -1.88912,-1.524 -1.88912,-1.524 l -1.03188,1.3335 h -5.5245 l 0.127,0.4445 h 2.84163 v 0.968375 l -2.032,-0.587375 c -0.20638,1.524 -0.65088,3.1115 -1.15888,4.15925 l 0.20638,0.127 c 1.09537,-0.714375 2.04787,-1.8415 2.74637,-3.254375 0.0952,0 0.17463,-0.01588 0.23813,-0.01588 v 2.25425 c 0,0.142875 -0.0476,0.254 -0.254,0.254 -0.254,0 -1.25413,-0.0635 -1.25413,-0.0635 v 0.1905 c 0.635,0.127 0.85725,0.34925 1.016,0.635 0.15875,0.301625 0.1905,0.777875 0.22225,1.42875 2.11138,-0.174625 2.413,-1.031875 2.413,-2.413 v -3.683 z m -2.7305,0.650875 c 0.34925,0.66675 0.635,1.635125 0.58738,2.524125 1.61925,1.539875 3.81,-1.603375 -0.4445,-2.6035 z m 6.42938,-4.048125 c 0.381,0 0.55562,-0.15875 0.61912,-0.365125 l -2.65112,-0.53975 c -0.0476,3.984625 -0.17463,7.318375 -3.3655,10.16 l 0.15875,0.206375 c 3.77825,-1.778 4.71487,-4.270375 5.04825,-7.112 0.15875,3.3655 0.60325,5.969 1.85737,7.112 0.14288,-1.36525 0.762,-2.206625 1.82563,-2.50825 v -0.1905 c -2.3495,-0.98425 -3.27025,-2.936875 -3.50838,-6.477 z m 1.88912,-3.1115 -0.98425,0.98425 h -2.286 c 0.34925,-0.73025 0.66675,-1.524 0.92075,-2.38125 0.36513,0 0.55563,-0.142875 0.635,-0.34925 l -2.76225,-0.746125 c -0.20637,2.492375 -0.85725,5.095875 -1.651,6.842125 l 0.1905,0.127 c 0.98425,-0.809625 1.79388,-1.80975 2.44475,-3.048 h 2.667 c -0.0794,0.85725 -0.23812,2.047875 -0.381,2.82575 l 0.15875,0.09525 c 0.71438,-0.66675 1.60338,-1.778 2.11138,-2.524125 0.33337,-0.03175 0.508,-0.0635 0.61912,-0.206375 z"/>
    <path d="m 162.26095,39.696948 h 1.76212 v 1.36525 h 0.3175 c 0.80963,0 1.74625,-0.333375 1.74625,-0.47625 v -0.889 h 1.25413 v 1.222375 h 0.28575 c 0.80962,0 1.778,-0.381 1.778,-0.555625 v -0.66675 h 2.11137 c 0.22225,0 0.381,-0.07937 0.42863,-0.254 -0.61913,-0.60325 -1.69863,-1.49225 -1.69863,-1.49225 l -0.84137,1.143 v -1.17475 c 0.39687,-0.0635 0.49212,-0.206375 0.52387,-0.396875 l -2.58762,-0.206375 v 1.93675 h -1.25413 v -1.3335 c 0.39688,-0.0635 0.49213,-0.206375 0.52388,-0.396875 l -2.58763,-0.206375 v 1.93675 h -1.88912 z m 6.23887,6.25475 v 0.714375 h 0.381 c 0.34925,0 0.74613,-0.09525 1.09538,-0.22225 l -1.00013,1.381125 h -1.36525 c 0.127,-0.587375 0.1905,-1.2065 0.22225,-1.87325 z m -3.58775,-1.9685 h 3.58775 v 1.524 h -3.58775 z m -3.81,-0.968375 v -1.285875 h 1.66688 v 2.31775 c -0.33338,-0.365125 -0.85725,-0.73025 -1.651,-1.031875 z m 7.39775,-0.98425 v 1.508125 h -3.58775 v -1.508125 z m 3.15913,6.238875 c 0.22225,0 0.39687,-0.07937 0.4445,-0.254 -0.60325,-0.5715 -1.57163,-1.397 -1.88913,-1.651 0.26988,-0.127 0.47625,-0.238125 0.47625,-0.301625 v -3.77825 c 0.254,-0.04763 0.41275,-0.174625 0.49213,-0.269875 l -1.88913,-1.412875 -0.93662,0.98425 h -3.34963 l -2.23837,-0.85725 v 0.09525 c -0.46038,-0.47625 -0.92075,-0.904875 -0.92075,-0.904875 l -0.74613,1.158875 v -3.095625 c 0.4445,-0.0635 0.55563,-0.22225 0.58738,-0.460375 l -2.80988,-0.269875 v 4.03225 h -2.0955 l 0.127,0.4445 h 1.82563 c -0.3175,2.38125 -0.9525,4.8895 -2.04788,6.683375 l 0.17463,0.15875 c 0.77787,-0.650875 1.44462,-1.36525 2.01612,-2.159 v 5.889625 h 0.4445 c 0.84138,0 1.778,-0.4445 1.778,-0.619125 v -8.22325 c 0.23813,0.66675 0.42863,1.49225 0.41275,2.2225 0.42863,0.428625 0.92075,0.4445 1.25413,0.238125 v 1.143 h 0.30162 c 0.889,0 1.8415,-0.47625 1.8415,-0.66675 v -0.4445 h 0.508 c -0.0159,0.650875 -0.0476,1.285875 -0.14287,1.87325 h -3.683 l 0.127,0.4445 h 3.44487 c -0.381,1.476375 -1.41287,2.76225 -4.2545,3.8735 l 0.11113,0.206375 c 4.39737,-0.73025 5.9055,-2.12725 6.46112,-4.03225 0.30163,1.571625 1.11125,3.349625 3.06388,3.984625 0.0476,-1.381125 0.58737,-1.920875 1.68275,-2.206625 v -0.1905 c -2.49238,-0.1905 -3.95288,-0.762 -4.46088,-1.635125 z"/>
    <path d="m 176.50079,41.601948 v -0.3175 -2.301875 h 0.87313 v 2.619375 z m 8.14388,9.731375 h -3.2385 v -2.905125 h 4.60375 c 0.23812,0 0.41275,-0.07937 0.46037,-0.254 -0.53975,-0.47625 -1.36525,-1.127125 -1.76212,-1.42875 2.01612,-0.22225 2.30187,-0.968375 2.30187,-2.3495 v -6.12775 c 0.34925,-0.0635 0.508,-0.1905 0.53975,-0.428625 l -2.68287,-0.22225 v 6.69925 c 0,0.15875 -0.0635,0.22225 -0.26988,0.22225 -0.28575,0 -1.61925,-0.09525 -1.61925,-0.09525 v 0.206375 c 0.6985,0.142875 0.96838,0.365125 1.19063,0.66675 0.1905,0.28575 0.254,0.6985 0.28575,1.254125 l -1.0795,1.412875 h -1.9685 v -1.778 c 0.4445,-0.0635 0.55562,-0.22225 0.5715,-0.460375 l -2.49238,-0.1905 v -3.508375 h 2.01613 0.0952 v 2.25425 h 0.36512 c 0.77788,0 1.69863,-0.333375 1.69863,-0.460375 v -4.937125 c 0.381,-0.0635 0.47625,-0.206375 0.508,-0.396875 l -2.57175,-0.22225 v 3.175 c -0.61913,-0.587375 -1.38113,-1.254125 -1.38113,-1.254125 l -0.73025,1.04775 v -2.270125 h 1.57163 c 0.22225,0 0.39687,-0.07937 0.4445,-0.254 -0.71438,-0.60325 -1.85738,-1.444625 -1.85738,-1.444625 l -1.016,1.254125 h -5.60387 l 0.127,0.4445 h 1.28587 v 2.301875 0.3175 h -1.68275 l 0.127,0.4445 h 1.53988 c -0.0476,1.635125 -0.36513,3.33375 -1.778,4.699 l 0.11112,0.127 c 2.95275,-1.190625 3.60363,-3.127375 3.71475,-4.826 h 0.90488 v 4.365625 h 0.381 c 0.55562,0 1.00012,-0.09525 1.30175,-0.206375 v 1.778 h -4.92125 l 0.127,0.4445 h 4.79425 v 2.905125 h -6.31825 l 0.127,0.4445 h 14.49387 c 0.23813,0 0.41275,-0.07937 0.46038,-0.254 -0.762,-0.66675 -2.04788,-1.651 -2.04788,-1.651 z"/>
    <path d="m 192.78851,46.983573 c -1.73037,0.3175 -3.4925,0.60325 -4.22275,0.682625 l 0.96838,2.38125 c 0.20637,-0.04763 0.381,-0.206375 0.4445,-0.428625 1.34937,-1.0795 2.286,-1.93675 2.84162,-2.492375 z m 8.33438,3.71475 h -3.65125 v -1.23825 c 1.19062,-0.98425 2.11137,-2.19075 2.8575,-3.476625 0.42862,0.936625 0.762,1.87325 0.93662,2.746375 1.69863,1.397 2.87338,-1.397 0.0317,-4.683125 0.46038,-1.0795 0.80963,-2.143125 1.09538,-3.095625 0.42862,-0.01588 0.55562,-0.142875 0.61912,-0.333375 l -2.63525,-0.73025 c -0.0952,0.841375 -0.254,1.80975 -0.49212,2.794 -0.58738,-0.492125 -1.30175,-1.000125 -2.11138,-1.49225 l -0.20637,0.111125 c 0.635,0.873125 1.31762,1.920875 1.905,3.000375 -0.47625,1.651 -1.12713,3.33375 -2.00025,4.699 v -9.62025 h 5.55625 c 0.22225,0 0.381,-0.07937 0.42862,-0.254 -0.635,-0.60325 -1.7145,-1.508125 -1.7145,-1.508125 l -0.9525,1.317625 h -3.09562 l -2.20663,-1.016 v 7.366 l -1.25412,-1.04775 c 0.17462,-1.5875 0.3175,-3.635375 0.381,-4.810125 0.3175,-0.04763 0.53975,-0.174625 0.65087,-0.301625 l -1.87325,-1.397 -0.73025,0.936625 h -3.71475 l 0.14288,0.4445 h 3.71475 c -0.0794,1.55575 -0.254,3.889375 -0.47625,5.730875 h -1.15888 c 0.127,-1.11125 0.23813,-2.794 0.30163,-3.77825 0.39687,-0.01588 0.53975,-0.206375 0.58737,-0.396875 l -2.27012,-0.396875 c 0,0.968375 -0.15875,3.175 -0.3175,4.47675 -0.1905,0.111125 -0.381,0.238125 -0.52388,0.365125 l 1.66688,0.968375 0.635,-0.79375 h 1.80975 c -0.11113,3.2385 -0.3175,4.6355 -0.68263,4.953 -0.11112,0.111125 -0.23812,0.142875 -0.4445,0.142875 -0.28575,0 -0.85725,-0.01588 -1.2065,-0.04762 v 0.206375 c 0.46038,0.127 0.73025,0.301625 0.92075,0.555625 0.17463,0.238125 0.20638,0.66675 0.20638,1.222375 0.74612,0 1.3335,-0.174625 1.80975,-0.5715 0.77787,-0.635 1.06362,-2.00025 1.19062,-6.1595 0.3175,-0.04763 0.52388,-0.142875 0.635,-0.269875 v 5.17525 c -0.1905,0.142875 -0.381,0.3175 -0.508,0.47625 l 2.01613,1.17475 0.60325,-1.000125 h 5.76262 c 0.22225,0 0.39688,-0.07937 0.42863,-0.254 -0.635,-0.60325 -1.7145,-1.508125 -1.7145,-1.508125 z"/>
    <path d="m 211.26698,39.665198 c 0.23813,0 0.39688,-0.07937 0.4445,-0.254 -0.71437,-0.650875 -1.92087,-1.61925 -1.92087,-1.61925 l -1.06363,1.42875 h -3.66712 l 0.127,0.4445 z m -2.19075,5.508625 c 0.20638,0.762 0.39688,1.635125 0.47625,2.524125 -1.44462,0.142875 -2.77812,0.269875 -3.73062,0.34925 1.22237,-0.9525 2.68287,-2.555875 3.52425,-3.84175 0.28575,-0.01587 0.4445,-0.15875 0.508,-0.3175 l -2.49238,-0.762 h 4.77838 c 0.22225,0 0.39687,-0.07937 0.4445,-0.254 -0.71438,-0.650875 -1.92088,-1.61925 -1.92088,-1.61925 l -1.06362,1.42875 h -5.15938 l 0.127,0.4445 h 2.31775 c -0.254,1.444625 -1.15887,3.8735 -1.82562,4.572 -0.15875,0.142875 -0.66675,0.238125 -0.66675,0.238125 l 1.19062,2.809875 c 0.17463,-0.07937 0.3175,-0.206375 0.4445,-0.396875 1.397,-0.619125 2.61938,-1.23825 3.57188,-1.762125 0,0.22225 -0.0159,0.4445 -0.0317,0.66675 1.7145,1.87325 3.8735,-1.74625 -0.3175,-4.143375 z m 8.79475,-5.064125 -1.143,1.143 h -1.41287 c 0.0159,-1.04775 0.0159,-2.143125 0.0317,-3.317875 0.381,-0.0635 0.55562,-0.206375 0.60325,-0.460375 l -2.88925,-0.254 c 0,1.444625 0.0159,2.778125 0.0159,4.03225 h -1.778 l 0.14288,0.4445 h 1.63512 c -0.0476,4.445 -0.52387,7.731125 -3.683,10.414 l 0.14288,0.206375 c 4.93712,-2.286 5.63562,-5.74675 5.76262,-10.620375 h 1.60338 c -0.127,5.191125 -0.30163,7.493 -0.84138,7.96925 -0.14287,0.127 -0.28575,0.1905 -0.52387,0.1905 -0.33338,0 -1.04775,-0.03175 -1.524,-0.07938 l -0.0159,0.1905 c 0.61913,0.15875 0.98425,0.396875 1.22238,0.73025 0.1905,0.28575 0.23812,0.777875 0.23812,1.49225 0.9525,0 1.66688,-0.238125 2.25425,-0.79375 0.93663,-0.889 1.17475,-2.841625 1.31763,-9.318625 0.36512,-0.0635 0.5715,-0.174625 0.6985,-0.3175 z"/>
    <path d="m 47.709862,67.450168 v -4.302125 h 2.12725 v 4.302125 z m 4.34975,-3.952875 c 0.333375,-0.0635 0.523875,-0.206375 0.635,-0.333375 l -2.032,-1.539875 -0.98425,1.0795 h -1.889125 l -2.25425,-0.889 v 8.09625 h 0.3175 c 0.936625,0 1.857375,-0.492125 1.857375,-0.6985 v -1.317625 h 2.12725 v 1.349375 h 0.381 c 0.73025,0 1.825625,-0.381 1.8415,-0.508 z m 3.27025,-3.8735 h -11.6205 l 0.127,0.4445 h 10.366375 v 10.38225 c 0,0.22225 -0.111125,0.34925 -0.396875,0.34925 -0.555625,0 -3.33375,-0.15875 -3.33375,-0.15875 v 0.1905 c 1.27,0.206375 1.74625,0.460375 2.159,0.79375 0.428625,0.333375 0.60325,0.904875 0.650875,1.651 2.809875,-0.15875 3.27025,-1.222375 3.27025,-2.7305 v -10.4775 h 1.889125 c 0.238125,0 0.428625,-0.07937 0.47625,-0.254 -0.873125,-0.73025 -2.31775,-1.793875 -2.31775,-1.793875 z"/>
    <path d="m 68.506082,58.290293 c 0.53975,0.587375 1.0795,1.524 1.254125,2.413 2.047875,1.317625 3.794125,-2.57175 -1.158875,-2.492375 z m 3.4925,2.968625 h -3.159125 l -2.587625,-0.873125 v 1.778 c -0.587375,-0.650875 -1.603375,-1.603375 -1.603375,-1.603375 l -0.746125,1.143 v -2.794 c 0.396875,-0.0635 0.555625,-0.22225 0.5715,-0.460375 l -2.794,-0.254 v 3.81 h -2.079625 l 0.127,0.4445 h 1.952625 v 3.444875 c -0.936625,0.269875 -1.698625,0.492125 -2.143125,0.60325 l 0.98425,2.50825 c 0.206375,-0.07937 0.365125,-0.28575 0.428625,-0.492125 0.254,-0.174625 0.492125,-0.333375 0.73025,-0.508 v 2.4765 c 0,0.174625 -0.07937,0.254 -0.301625,0.254 -0.333375,0 -1.80975,-0.09525 -1.80975,-0.09525 v 0.22225 c 0.762,0.142875 1.063625,0.381 1.30175,0.746125 0.238125,0.365125 0.3175,0.889 0.365125,1.651 2.3495,-0.22225 2.667,-1.04775 2.667,-2.587625 v -4.302125 c 0.841375,-0.650875 1.508125,-1.222375 2.016125,-1.666875 l -0.04763,-0.142875 c -0.650875,0.22225 -1.317625,0.4445 -1.9685,0.650875 v -2.76225 h 1.952625 c 0.1905,0 0.333375,-0.0635 0.396875,-0.174625 v 3.048 c 0,2.778125 -0.269875,5.588 -2.555875,7.8105 l 0.111125,0.111125 c 4.34975,-1.920875 4.699,-5.191125 4.699,-7.921625 v -3.6195 h 5.921375 c 0.22225,0 0.396875,-0.07937 0.4445,-0.254 -0.682625,-0.650875 -1.8415,-1.603375 -1.8415,-1.603375 z"/>
    <path d="m 87.270301,67.529543 c -0.333375,0.523875 -0.889,1.30175 -1.412875,1.952625 -0.6985,-0.492125 -1.285875,-1.127125 -1.698625,-1.952625 z m -6.1595,-2.587625 v 2.143125 h -1.61925 c 0.127,-0.73025 0.1905,-1.444625 0.22225,-2.143125 z m 6.048375,-5.17525 v 2.032 h -7.4295 v -2.032 z m -2.333625,2.8575 v 1.87325 h -1.55575 v -1.381125 c 0.3175,-0.04762 0.41275,-0.174625 0.428625,-0.34925 l -2.587625,-0.22225 v 1.952625 h -1.397 c 0.01587,-0.301625 0.01587,-0.60325 0.01587,-0.889 v -1.36525 h 7.4295 v 0.587375 z m 0,4.460875 h -1.55575 v -2.143125 h 1.55575 z m 2.714625,0.4445 h 2.667 c 0.22225,0 0.396875,-0.07937 0.4445,-0.254 -0.73025,-0.682625 -1.9685,-1.7145 -1.9685,-1.7145 l -1.11125,1.524 h -0.619125 v -2.143125 h 2.524125 c 0.238125,0 0.396875,-0.07937 0.4445,-0.254 -0.650875,-0.619125 -1.74625,-1.524 -1.74625,-1.524 l -0.98425,1.3335 h -0.238125 v -1.30175 c 0.3175,-0.04762 0.428625,-0.174625 0.4445,-0.333375 h 0.142875 c 0.6985,0 1.825625,-0.333375 1.8415,-0.428625 v -2.301875 c 0.333375,-0.07937 0.53975,-0.22225 0.635,-0.34925 l -2.047875,-1.524 -0.968375,1.063625 h -6.937375 l -2.667,-0.889 v 5.191125 c 0,3.175 -0.142875,6.715125 -1.9685,9.525 l 0.127,0.09525 c 2.397125,-1.524 3.429,-3.603625 3.857625,-5.715 h 0.968375 v 2.6035 c 0,0.333375 -0.09525,0.508 -0.762,0.873125 l 1.23825,2.397125 c 0.111125,-0.0635 0.238125,-0.15875 0.34925,-0.269875 1.508125,-1.11125 2.7305,-2.206625 3.317875,-2.778125 l -0.03175,-0.142875 c -0.66675,0.15875 -1.3335,0.3175 -1.952625,0.460375 v -3.14325 h 1.3335 c 0.79375,3.3655 2.44475,4.778375 5.095875,5.794375 0.254,-1.11125 0.85725,-1.857375 1.762125,-2.111375 l 0.01588,-0.1905 c -1.508125,-0.1905 -2.9845,-0.508 -4.191,-1.127125 0.873125,-0.22225 1.762125,-0.460375 2.44475,-0.682625 0.365125,0.07937 0.523875,0 0.619125,-0.142875 z"/>
    <path d="m 94.080646,70.355293 v -4.15925 h 1.952625 v 4.15925 z m 1.952625,-8.54075 v 3.937 h -1.952625 v -3.937 z m 8.588379,-1.7145 -1.19063,1.2065 h -1.98437 c 0.33337,-0.587375 0.635,-1.2065 0.90487,-1.87325 0.36513,0 0.5715,-0.127 0.635,-0.333375 l -2.95275,-0.85725 c -0.349249,2.333625 -1.111249,4.8895 -1.857374,6.57225 v -2.651125 c 0.3175,-0.07937 0.523875,-0.206375 0.635,-0.34925 l -1.952625,-1.539875 -0.98425,1.095375 h -1.04775 c 0.5715,-0.619125 1.285875,-1.412875 1.762125,-1.9685 0.381,0 0.60325,-0.111125 0.682625,-0.396875 l -3.063875,-0.73025 c -0.04762,0.904875 -0.111125,2.159 -0.1905,3.048 l -2.00025,-0.8255 v 12.1285 h 0.333375 c 0.92075,0 1.730375,-0.492125 1.730375,-0.73025 v -1.095375 h 1.952625 v 1.254125 h 0.34925 c 0.746125,0 1.778,-0.4445 1.793875,-0.587375 v -6.429375 l 0.09525,0.0635 c 1.11125,-0.873125 2.079624,-1.984375 2.905124,-3.349625 h 2.44475 c -0.0953,5.3975 -0.23812,8.3185 -0.80962,8.8265 -0.15875,0.142875 -0.3175,0.206375 -0.58738,0.206375 -0.41275,0 -1.49225,-0.0635 -2.254249,-0.127 l -0.01587,0.1905 c 0.825509,0.174625 1.412879,0.460375 1.714509,0.809625 0.28575,0.3175 0.381,0.841375 0.381,1.5875 1.19062,0 1.92087,-0.269875 2.54,-0.889 0.93662,-0.968375 1.12712,-3.540125 1.23825,-10.207625 0.381,-0.0635 0.58737,-0.174625 0.71437,-0.333375 z m -5.429254,4.5085 c 0.555625,0.889 1.016004,2.12725 1.047754,3.27025 1.95262,1.698625 4.09575,-2.19075 -0.920754,-3.349625 z"/>
    <path d="m 119.65524,65.291168 c -0.41275,0.714375 -1.25412,1.80975 -2.06375,2.682875 -0.73025,-0.6985 -1.31762,-1.635125 -1.73037,-2.8575 h 5.87375 c 0.23812,0 0.41275,-0.07937 0.46037,-0.254 -0.74612,-0.6985 -2.00025,-1.730375 -2.00025,-1.730375 l -1.11125,1.539875 h -3.14325 v -1.889125 h 4.6355 c 0.22225,0 0.39688,-0.07937 0.4445,-0.254 -0.6985,-0.66675 -1.92087,-1.666875 -1.92087,-1.666875 l -1.06363,1.476375 h -2.0955 v -1.762125 h 5.15938 c 0.22225,0 0.39687,-0.07937 0.4445,-0.254 -0.71438,-0.682625 -1.95263,-1.698625 -1.95263,-1.698625 l -1.0795,1.508125 h -2.57175 v -1.349375 c 0.4445,-0.0635 0.55563,-0.22225 0.58738,-0.4445 l -2.93688,-0.238125 v 2.032 h -5.36575 l 0.127,0.4445 h 5.23875 v 1.762125 h -4.572 l 0.127,0.4445 h 4.445 v 1.889125 h -6.12775 l 0.127,0.4445 h 4.84188 c -1.09538,1.666875 -3.01625,3.508375 -5.334,4.6355 l 0.0794,0.15875 c 1.397,-0.333375 2.71463,-0.777875 3.90525,-1.30175 v 1.635125 c 0,0.333375 -0.127,0.523875 -0.93662,0.968375 l 1.41287,2.270125 c 0.127,-0.07937 0.26988,-0.206375 0.381,-0.365125 2.07963,-1.27 3.71475,-2.4765 4.572,-3.14325 l -0.0476,-0.15875 c -1.04775,0.269875 -2.12725,0.523875 -3.06388,0.746125 v -3.222625 c 0.87313,-0.60325 1.61925,-1.27 2.19075,-2.00025 0.762,3.889375 2.25425,6.238875 4.953,7.477125 0.0952,-1.0795 0.73025,-1.952625 1.79388,-2.54 l 0.0318,-0.238125 c -1.60338,-0.22225 -3.06388,-0.682625 -4.2545,-1.603375 1.25412,-0.365125 2.50825,-0.85725 3.41312,-1.317625 0.36513,0.0635 0.52388,-0.03175 0.60325,-0.174625 z"/>
    <path d="m 126.25921,58.512543 c 0.635,0.8255 1.34937,2.00025 1.60337,3.07975 2.00025,1.3335 3.60363,-2.4765 -1.47637,-3.159125 z m 1.0795,8.683625 v -2.159 h 2.0955 v 2.159 z m 2.0955,-4.66725 v 2.06375 h -2.0955 v -2.06375 z m 4.49262,0 v 2.06375 h -2.11137 v -2.06375 z m -2.11137,4.66725 v -2.159 h 2.11137 v 2.159 z m 2.82575,2.333625 h -2.82575 v -1.889125 h 2.11137 v 0.650875 h 0.41275 c 0.79375,0 1.905,-0.47625 1.92088,-0.635 v -4.810125 c 0.30162,-0.0635 0.47625,-0.1905 0.55562,-0.301625 l -2.032,-1.539875 -1.016,1.0795 h -2.12725 c 1.11125,-0.587375 2.33363,-1.4605 3.3655,-2.397125 0.36513,0.03175 0.58738,-0.09525 0.68263,-0.269875 l -2.794,-1.222375 c -0.508,1.397 -1.15888,2.95275 -1.66688,3.889375 h -3.7465 l -2.44475,-0.936625 v 7.445375 h 0.33338 c 0.9525,0 1.9685,-0.508 1.9685,-0.73025 v -0.22225 h 2.0955 v 1.889125 h -6.33413 l 0.127,0.4445 h 6.20713 v 3.27025 h 0.4445 c 1.22237,0 1.93675,-0.4445 1.93675,-0.5715 v -2.69875 h 5.88962 c 0.23813,0 0.42863,-0.07937 0.47625,-0.254 -0.87312,-0.714375 -2.286,-1.74625 -2.286,-1.74625 z"/>
    <path d="m 144.9123,66.354793 h -3.07975 c 0.14288,-0.85725 0.30163,-2.06375 0.39688,-2.905125 h 2.65112 v 0.809625 h 0.381 c 0.71438,0 1.82563,-0.365125 1.8415,-0.492125 v -3.508375 c 0.28575,-0.0635 0.47625,-0.1905 0.55563,-0.301625 l -1.9685,-1.476375 -0.96838,1.031875 h -5.31812 l 0.14287,0.4445 h 5.334 v 3.048 h -2.20662 l -2.44475,-0.92075 c -0.0635,1.016 -0.26988,3.032125 -0.47625,4.175125 -0.1905,0.127 -0.381,0.254 -0.508,0.396875 l 1.92087,1.031875 0.6985,-0.889 h 3.175 c -0.20637,2.2225 -0.55562,3.81 -1.00012,4.143375 -0.15875,0.111125 -0.30163,0.142875 -0.58738,0.142875 -0.39687,0 -1.85737,-0.07937 -2.8575,-0.15875 v 0.174625 c 0.889,0.174625 1.66688,0.47625 2.032,0.8255 0.34925,0.3175 0.4445,0.841375 0.42863,1.4605 1.25412,0 1.92087,-0.1905 2.52412,-0.60325 0.96838,-0.66675 1.4605,-2.54 1.73038,-5.588 0.34925,-0.04762 0.55562,-0.15875 0.68262,-0.301625 l -1.92087,-1.61925 z m 5.1435,-8.016875 v 14.9225 h 0.4445 c 0.90488,0 1.92088,-0.5715 1.92088,-0.809625 v -13.36675 c 0.4445,-0.0635 0.55562,-0.238125 0.58737,-0.460375 z"/>
    <path d="m 158.34252,60.084168 h 1.19063 v 1.016 h 0.30162 c 0.55563,0 1.143,-0.142875 1.397,-0.254 l -0.6985,0.66675 h -2.71462 l 0.0476,-0.0635 c 0.34925,0 0.52388,-0.142875 0.58738,-0.333375 l -0.68263,-0.1905 c 0.33338,-0.07937 0.5715,-0.174625 0.5715,-0.238125 z m 1.47638,3.063875 c 0.17462,-0.04763 0.28575,-0.127 0.34925,-0.1905 l -1.3335,-0.98425 -0.65088,0.650875 h -0.66675 l -0.46037,-0.174625 c 0.15875,-0.15875 0.30162,-0.333375 0.42862,-0.492125 h 3.19088 c -0.0635,1.61925 -0.15875,2.413 -0.33338,2.63525 -0.0476,0.07937 -0.11112,0.09525 -0.22225,0.09525 -0.0952,0 -0.23812,0 -0.39687,-0.01587 0.0635,-0.04762 0.0953,-0.07937 0.0953,-0.111125 z m -2.36538,1.127125 v -1.2065 h 0.8255 v 1.2065 z m -1.49225,1.254125 h 0.20638 c 0.61912,0 1.28587,-0.3175 1.28587,-0.4445 v -0.365125 h 0.8255 v 0.3175 h 0.26988 c 0.20637,0 0.46037,-0.0635 0.6985,-0.142875 0.3175,0.127 0.5715,0.333375 0.6985,0.523875 0.14287,0.238125 0.20637,0.619125 0.1905,1.016 0.60325,-0.01587 1.11125,-0.09525 1.49225,-0.381 0.635,-0.460375 0.79375,-1.508125 0.90487,-3.81 0.28575,-0.03175 0.47625,-0.142875 0.5715,-0.269875 l -1.63512,-1.349375 -0.11113,0.111125 v -0.650875 h 1.79388 c 0.20637,0 0.36512,-0.07937 0.39687,-0.254 -0.47625,-0.492125 -1.30175,-1.17475 -1.30175,-1.17475 l -0.71437,0.98425 h -0.17463 v -0.762 c 0.4445,-0.0635 0.5715,-0.22225 0.60325,-0.4445 l -2.42887,-0.206375 v 1.412875 h -1.19063 v -0.762 c 0.4445,-0.0635 0.5715,-0.22225 0.60325,-0.4445 l -2.42887,-0.206375 v 1.412875 h -1.55575 l 0.127,0.4445 h 1.42875 v 0.492125 l -0.381,-0.111125 c -0.254,1.17475 -0.77788,2.555875 -1.36525,3.39725 l 0.20637,0.142875 c 0.33338,-0.15875 0.66675,-0.365125 0.98425,-0.60325 z m 10.8585,4.34975 h -3.19087 v -1.127125 h 4.1275 0.0159 z m -1.524,-1.571625 h -1.66687 v -1.031875 c 0.98425,-0.07937 1.905,-0.174625 2.69875,-0.28575 0.52387,0.22225 0.889,0.206375 1.0795,0.0635 l -1.82563,-1.87325 c -2.159,0.79375 -6.33412,1.651 -9.69962,1.9685 l 0.0317,0.238125 c 1.74625,0.09525 3.65125,0.09525 5.461,0.01587 v 0.904875 h -5.0165 l 0.127,0.4445 h 4.8895 v 1.127125 h -6.31825 l 0.127,0.4445 h 6.19125 v 0.60325 c 0,0.15875 -0.0794,0.254 -0.33338,0.254 -0.39687,0 -2.42887,-0.127 -2.42887,-0.127 v 0.1905 c 1.00012,0.15875 1.36525,0.396875 1.651,0.66675 0.33337,0.301625 0.41275,0.762 0.47625,1.397 2.50825,-0.15875 2.88925,-0.98425 2.88925,-2.3495 v -0.635 h 5.69912 c 0.22225,0 0.39688,-0.07937 0.4445,-0.254 -0.58737,-0.492125 -1.49225,-1.127125 -1.79387,-1.349375 0.11112,-0.03175 0.1905,-0.111125 0.20637,-0.22225 -0.71437,-0.5715 -1.87325,-1.36525 -1.87325,-1.36525 z m 1.143,-7.58825 c -0.14287,0.746125 -0.39687,1.42875 -0.762,2.06375 -0.381,-0.301625 -0.68262,-0.650875 -0.9525,-1.031875 0.22225,-0.333375 0.42863,-0.682625 0.60325,-1.031875 z m 3.00038,0 c 0.22225,0 0.39687,-0.07938 0.4445,-0.254 -0.635,-0.60325 -1.7145,-1.508125 -1.7145,-1.508125 l -0.9525,1.317625 h -1.66688 c 0.1905,-0.41275 0.34925,-0.8255 0.47625,-1.23825 0.36513,-0.03175 0.53975,-0.206375 0.5715,-0.41275 l -2.84162,-0.47625 c -0.0794,1.778 -0.39688,3.984625 -1.00013,5.349875 l 0.1905,0.111125 c 0.55563,-0.381 1.04775,-0.873125 1.4605,-1.42875 0.20638,0.523875 0.41275,1.000125 0.68263,1.444625 -0.6985,0.841375 -1.63513,1.55575 -2.87338,2.143125 l 0.0794,0.1905 c 1.34937,-0.333375 2.4765,-0.79375 3.429,-1.397 0.73025,0.904875 1.73037,1.61925 3.1115,2.079625 0.11112,-1.000125 0.47625,-1.61925 1.27,-1.952625 l 0.0318,-0.15875 c -1.25413,-0.1905 -2.31775,-0.492125 -3.19088,-0.92075 0.80963,-0.79375 1.38113,-1.762125 1.73038,-2.88925 z"/>
    </g>
</svg>
